<svg xmlns="http://www.w3.org/2000/svg" width="72" height="72" viewBox="0 0 72 72">
  <g id="Group_15926" data-name="Group 15926" transform="translate(-640 -1123.5)">
    <circle id="Ellipse_41" data-name="Ellipse 41" cx="36" cy="36" r="36" transform="translate(640 1123.5)" fill="rgba(255,255,255,0.2)"/>
    <g id="social-media" transform="translate(657 1142.5)">
      <path id="Path_107" data-name="Path 107" d="M406.853,65.126a.878.878,0,0,0,.876,0L410.1,63.76a.876.876,0,0,0,0-1.517l-2.367-1.366a.876.876,0,0,0-1.314.758v2.733A.878.878,0,0,0,406.853,65.126Zm.655-3.115,1.715.99-1.715.99Z" transform="translate(-376.806 -58.393)" fill="#fff"/>
      <path id="Path_108" data-name="Path 108" d="M368.913,178.563h-7.591a1.457,1.457,0,0,0-1.455,1.455v7.591a1.457,1.457,0,0,0,1.455,1.455h7.591a1.457,1.457,0,0,0,1.455-1.455v-7.591A1.457,1.457,0,0,0,368.913,178.563Zm.363,9.046a.363.363,0,0,1-.363.363h-7.591a.363.363,0,0,1-.363-.363v-7.591a.363.363,0,0,1,.363-.363h7.591a.363.363,0,0,1,.363.363Z" transform="translate(-333.649 -167.613)" fill="#fff"/>
      <path id="Path_109" data-name="Path 109" d="M400.664,228.387a2.457,2.457,0,1,0,2.457,2.457A2.46,2.46,0,0,0,400.664,228.387Zm0,3.822a1.365,1.365,0,1,1,1.365-1.365A1.366,1.366,0,0,1,400.664,232.209Z" transform="translate(-369.195 -213.808)" fill="#fff"/>
      <path id="Path_110" data-name="Path 110" d="M460.546,205.158a.546.546,0,0,0-.546.546v.475a.546.546,0,0,0,1.093,0V205.7A.546.546,0,0,0,460.546,205.158Z" transform="translate(-426.487 -192.271)" fill="#fff"/>
      <path id="Path_111" data-name="Path 111" d="M405.314,387.3a.113.113,0,0,1-.16,0l-.3-.3a.546.546,0,0,0-.773.773l.3.3a1.207,1.207,0,0,0,1.705,0l1.563-1.563a1.207,1.207,0,0,0,0-1.705l-.3-.3a.546.546,0,1,0-.773.773l.3.3a.113.113,0,0,1,0,.16Z" transform="translate(-374.493 -358.405)" fill="#fff"/>
      <path id="Path_112" data-name="Path 112" d="M18.977,121.5h0a.546.546,0,0,0-.546.546v.285l-3.179,1.322a.546.546,0,0,0-.545-.517h0a.546.546,0,0,0-.546.546v.424l-2.455,1.021H5.55a1.61,1.61,0,0,0-1.608,1.608v.143H3.3v-.035a.546.546,0,0,0-.546-.546h0a.546.546,0,0,0-.546.546v.081a2.7,2.7,0,0,0,0,5.314v.081a.546.546,0,0,0,.546.546h0a.546.546,0,0,0,.546-.546v-.035h.644v.143a1.608,1.608,0,0,0,1.608,1.609H5.7v1.76a.546.546,0,1,0,1.093,0v-1.76H9.448v1.727a.066.066,0,0,1-.038.059l-.794.372a1.163,1.163,0,0,0-.667,1.049v2.372a.414.414,0,0,1-.414.414H7.2a.414.414,0,0,1-.414-.414v-1.389a.546.546,0,0,0-.546-.546h0a.546.546,0,0,0-.546.546v1.389A1.506,1.506,0,0,0,7.2,141.124h.333a1.506,1.506,0,0,0,1.507-1.506v-2.372a.066.066,0,0,1,.038-.059l.794-.372a1.163,1.163,0,0,0,.667-1.049v-1.727H11.7l2.455,1.022v.424a.546.546,0,0,0,.546.546h0a.546.546,0,0,0,.545-.516l3.179,1.323v.285a.546.546,0,0,0,.546.546h0a.546.546,0,0,0,.546-.546v-.649h0V122.046a.546.546,0,0,0-.546-.546ZM7,126.221H9.238V127a.4.4,0,0,1-.4.4H7.4A.4.4,0,0,1,7,127Zm-5.906,3.361A1.607,1.607,0,0,1,2.2,128.052v3.061A1.607,1.607,0,0,1,1.093,129.582Zm2.2,1.61v-3.22h.644c0,.491,0,2.715,0,3.22Zm1.888,1.6a.513.513,0,0,1-.151-.365c0-1.418,0-4.282,0-5.692a.516.516,0,0,1,.516-.516h.355V127a1.5,1.5,0,0,0,1.5,1.5H8.834a1.5,1.5,0,0,0,1.5-1.5v-.777h.937c0,.814,0,5.924,0,6.724H5.55a.512.512,0,0,1-.365-.151Zm7.175.334c0-.808,0-6.274,0-7.088l1.8-.748v8.585Zm2.892,1.2v-9.494l3.178-1.322v12.138Z" transform="translate(0 -114.708)" fill="#fff"/>
      <path id="Path_113" data-name="Path 113" d="M293.423,224.938h-2.194a.546.546,0,1,0,0,1.093h2.194a.546.546,0,0,0,0-1.093Z" transform="translate(-269.504 -210.61)" fill="#fff"/>
      <path id="Path_114" data-name="Path 114" d="M282.579,137.478l1.552-1.552a.546.546,0,0,0-.773-.773l-1.552,1.552a.546.546,0,0,0,.773.773Z" transform="translate(-261.127 -127.218)" fill="#fff"/>
      <path id="Path_115" data-name="Path 115" d="M282,293.507a.546.546,0,0,0-.773.773l1.552,1.552a.546.546,0,0,0,.773-.773Z" transform="translate(-260.591 -274.035)" fill="#fff"/>
      <path id="Path_116" data-name="Path 116" d="M365.437,340.637a5.226,5.226,0,0,0-4.678,7.555l-.529,1.974a.546.546,0,0,0,.669.669l1.844-.494a5.224,5.224,0,0,0,5.918-.368.546.546,0,0,0-.675-.859,4.13,4.13,0,0,1-4.848.183.546.546,0,0,0-.446-.074l-1.162.311.339-1.266a.546.546,0,0,0-.05-.406,4.133,4.133,0,1,1,7.372-.273.546.546,0,1,0,.993.457,5.225,5.225,0,0,0-4.747-7.409Z" transform="translate(-333.968 -317.88)" fill="#fff"/>
      <path id="Path_117" data-name="Path 117" d="M361.61,28.27h-5.056a.546.546,0,1,0,0,1.093h5.056a.53.53,0,0,1,.529.529v5.973a.53.53,0,0,1-.529.529h-8.474a.53.53,0,0,1-.529-.529V29.892a.53.53,0,0,1,.529-.529h1.234a.546.546,0,1,0,0-1.093h-1.234a1.624,1.624,0,0,0-1.622,1.622v5.973a1.624,1.624,0,0,0,1.622,1.622h8.474a1.624,1.624,0,0,0,1.622-1.622V29.892A1.624,1.624,0,0,0,361.61,28.27Z" transform="translate(-325.904 -28.27)" fill="#fff"/>
    </g>
  </g>
</svg>
