<svg xmlns="http://www.w3.org/2000/svg" width="15.891" height="11.918" viewBox="0 0 15.891 11.918">
  <path id="Icon_awesome-envelope" data-name="Icon awesome-envelope" d="M15.59,8.435a.187.187,0,0,1,.3.146v6.347a1.49,1.49,0,0,1-1.49,1.49H1.49A1.49,1.49,0,0,1,0,14.928V8.584a.186.186,0,0,1,.3-.146c.7.54,1.617,1.226,4.783,3.526.655.478,1.76,1.484,2.862,1.477,1.108.009,2.235-1.018,2.865-1.477C13.976,9.664,14.894,8.975,15.59,8.435Zm-7.644,4.01c.72.012,1.757-.906,2.278-1.285,4.119-2.989,4.432-3.249,5.382-3.994a.743.743,0,0,0,.286-.587V5.99A1.49,1.49,0,0,0,14.4,4.5H1.49A1.49,1.49,0,0,0,0,5.99v.59a.747.747,0,0,0,.286.587c.95.742,1.263,1.006,5.382,3.994C6.189,11.539,7.225,12.458,7.945,12.445Z" transform="translate(0 -4.5)" fill="#e4146e"/>
</svg>
