<svg xmlns="http://www.w3.org/2000/svg" xmlns:xlink="http://www.w3.org/1999/xlink" width="81" height="80.992" viewBox="0 0 81 80.992">
  <defs>
    <clipPath id="clip-path">
      <rect id="Rectangle_167" data-name="Rectangle 167" width="43.872" height="27.6" transform="translate(0 0)" fill="none"/>
    </clipPath>
  </defs>
  <g id="Group_469" data-name="Group 469" transform="translate(-724.5 -814.5)">
    <g id="Group_421" data-name="Group 421" transform="translate(742.788 840.874)">
      <g id="Group_420" data-name="Group 420" transform="translate(0 0)" clip-path="url(#clip-path)">
        <path id="Path_504" data-name="Path 504" d="M14,18.417a.941.941,0,0,0-.082.582.891.891,0,0,0,.279.508l3.287,2.968.307-.306-1.216,1.212a2.387,2.387,0,0,0-.112,3.2l.183.212a2.041,2.041,0,0,0,1.466.723,1.962,1.962,0,0,0,.585-.066l4.554-4.541a.258.258,0,0,1,.383.008.308.308,0,0,1-.022.411L19.078,27.85a1.017,1.017,0,0,0,.241.695l.682.789a2.5,2.5,0,0,0,1.791.884,2.41,2.41,0,0,0,.9-.134l5.165-5.151a.259.259,0,0,1,.383.009.307.307,0,0,1-.022.411l-4.343,4.331a.45.45,0,0,0,.064.1l.282.327a2.837,2.837,0,0,0,2.036,1,2.73,2.73,0,0,0,1.147-.2L30.22,28.1a2.036,2.036,0,0,0-.1.774c0,.033.007.064.011.1l-1.378,1.375a2.133,2.133,0,0,0,1.444.66,2.089,2.089,0,0,0,1.249-.355,2.007,2.007,0,0,0,.706.13c.045,0,.091,0,.135-.005a2.04,2.04,0,0,0,1.88-1.723,2.033,2.033,0,0,0,2.84.039,2.045,2.045,0,0,0,.483-2.247A2.03,2.03,0,0,0,39.3,24.209c.029,0,.059,0,.088,0a2.031,2.031,0,0,0,1.655-3l2.506-2.483a.9.9,0,0,0,.261-.569.919.919,0,0,0-.163-.61l-5.761-8.2a.841.841,0,0,0-.26-.242.781.781,0,0,0-.329-.105l-2.559-.22a6.881,6.881,0,0,0-3.008.414,7.068,7.068,0,0,0-.9.41c-.086-.048-.172-.1-.259-.143a8.157,8.157,0,0,0-.8-.354l-3.8-1.451a3.179,3.179,0,0,0-2.221-.022l-5.012,1.8a.812.812,0,0,0-.269.162.891.891,0,0,0-.194.257Zm24.1,3.831a1.158,1.158,0,0,1,1.079-1.231l.078,0A1.158,1.158,0,0,1,40.405,22.1a1.157,1.157,0,0,1-1.078,1.23A1.16,1.16,0,0,1,38.1,22.249M36.523,25.62l-.011-.012-.067-.071-.144-.152-.037-.039-.218-.231-.322-.34a1.157,1.157,0,0,1,1.681-1.59l.114.121c.217.227.668.7.69.728a1.157,1.157,0,0,1-.853,1.939,1.144,1.144,0,0,1-.833-.354m-3.179,1.289a1.157,1.157,0,1,1,1.68-1.592l.061.064h0l.015.015c.043.047.171.182.562.595l.223.235h0l.575.608a1.157,1.157,0,0,1-.854,1.938,1.146,1.146,0,0,1-.832-.354l-1.429-1.511m-1.266.682.078,0a1.152,1.152,0,1,1-.078,0M14.72,18.834,19,10.263l5.013-1.8a2.419,2.419,0,0,1,.821-.144h.024a2.418,2.418,0,0,1,.842.16L30,10.119h0l.235.09.582.383,3.425,7.516a.665.665,0,0,1,0,.463.606.606,0,0,1-.311.344l-.342.158a.793.793,0,0,1-.338.062,3.81,3.81,0,0,1-.679-.088,5.332,5.332,0,0,1-2.6-2.5,10.066,10.066,0,0,1-1.15-3.769l-.056-.867-.731.043-.669.04a.423.423,0,0,0-.341.217.491.491,0,0,0-.031.424l.1.256-9,8.977Z" transform="translate(-6.582 -3.521)" fill="#fff"/>
        <path id="Path_505" data-name="Path 505" d="M.577,14.306,3.96,15.994a2.128,2.128,0,0,0,2.853-.954l4.43-8.883A2.127,2.127,0,0,0,10.289,3.3L6.905,1.617Z" transform="translate(-0.273 -0.766)" fill="none" stroke="#fff" stroke-miterlimit="10" stroke-width="0.861"/>
        <path id="Path_506" data-name="Path 506" d="M60.639,5.136l5.706,8.122a2.127,2.127,0,0,0,2.963.518L72.4,11.6,64.25,0,61.156,2.173a2.127,2.127,0,0,0-.517,2.964" transform="translate(-28.529 0)" fill="#fff"/>
      </g>
    </g>
    <g id="Group_422" data-name="Group 422" transform="translate(725 815)">
      <path id="Path_432" data-name="Path 432" d="M-12.252-5.3-42.965-36.013a9.279,9.279,0,0,0-13.128,0L-86.811-5.3a9.275,9.275,0,0,0,0,13.124l30.719,30.72a9.292,9.292,0,0,0,13.128,0l30.713-30.72a9.275,9.275,0,0,0,0-13.124" transform="translate(89.532 38.734)" fill="none" stroke="#fff" stroke-linecap="round" stroke-linejoin="round" stroke-width="1"/>
    </g>
  </g>
</svg>
