<svg id="Component_77_1" data-name="Component 77 – 1" xmlns="http://www.w3.org/2000/svg" xmlns:xlink="http://www.w3.org/1999/xlink" width="141.421" height="141.421" viewBox="0 0 141.421 141.421">
  <defs>
    <linearGradient id="linear-gradient" x1="0.043" y1="0.043" x2="0.585" y2="0.585" gradientUnits="objectBoundingBox">
      <stop offset="0" stop-color="#e4077d"/>
      <stop offset="1" stop-color="#6226a7"/>
    </linearGradient>
    <clipPath id="clip-path">
      <path id="Path_437" data-name="Path 437" d="M0-93.674H93.683V0H0Z" fill="none"/>
    </clipPath>
  </defs>
  <rect id="Rectangle_125" data-name="Rectangle 125" width="100" height="100" rx="12" transform="translate(70.711) rotate(45)" opacity="0.15" fill="url(#linear-gradient)"/>
  <g id="Group_344" data-name="Group 344" transform="translate(23.158 117.836)">
    <g id="Group_329" data-name="Group 329" clip-path="url(#clip-path)">
      <g id="Group_324" data-name="Group 324" transform="translate(90.031 -54.44)">
        <path id="Path_432" data-name="Path 432" d="M0,0-35.582-35.582a10.75,10.75,0,0,0-15.209,0L-86.38,0a10.746,10.746,0,0,0,0,15.2l35.589,35.59a10.765,10.765,0,0,0,15.209,0L0,15.2A10.746,10.746,0,0,0,0,0" fill="none" stroke="#fff" stroke-linecap="round" stroke-linejoin="round" stroke-width="1"/>
      </g>
      <g id="Group_325" data-name="Group 325" transform="translate(32.111 -46.185)">
        <path id="Path_433" data-name="Path 433" d="M0,0C-1.514,0-3.086-.307-3.669.821a1.68,1.68,0,0,0,.18,1.785,3.569,3.569,0,0,0,1.46.8c-.071.679-.339,1.552-.393,2.2-.064.8-.085,1.7-.085,2.5V13.29c0,2.979-.416,3.366,1.681,3.366a25.414,25.414,0,0,0,3.532-.084c.4-.187.349-.413.553-.763l22.983-.019c.109.9.735.866,1.6.866.8,0,1.6,0,2.4,0,2.033,0,1.762-.157,1.762-3.366,0-3.285.261-7.088-.559-9.837a5.64,5.64,0,0,0,1.433-.785A1.662,1.662,0,0,0,33.146.84C32.594-.321,30.968,0,29.447,0L27.533-3.723C25.69-7.231,22.956-6.87,19.989-7.151c-1.4-.135-3.817-.1-5.277-.1-2.463,0-8.276-.022-10,.8A5.885,5.885,0,0,0,1.91-3.7C1.257-2.46.586-1.208,0,0Z" fill="none" stroke="#fff" stroke-linecap="round" stroke-linejoin="round" stroke-width="1"/>
      </g>
      <g id="Group_326" data-name="Group 326" transform="translate(54.012 -58.284)">
        <path id="Path_434" data-name="Path 434" d="M0,0A10.152,10.152,0,0,0-7.2-2.975,10.1,10.1,0,0,0-14.39,0" fill="none" stroke="#fff" stroke-linecap="round" stroke-linejoin="round" stroke-width="1"/>
      </g>
      <g id="Group_327" data-name="Group 327" transform="translate(58.121 -61.77)">
        <path id="Path_435" data-name="Path 435" d="M0,0A15.9,15.9,0,0,0-11.3-4.663,15.843,15.843,0,0,0-22.552,0" fill="none" stroke="#fff" stroke-linecap="round" stroke-linejoin="round" stroke-width="1"/>
      </g>
      <g id="Group_328" data-name="Group 328" transform="translate(62.269 -65.717)">
        <path id="Path_436" data-name="Path 436" d="M0,0A21.667,21.667,0,0,0-15.422-6.387h-.044A21.594,21.594,0,0,0-30.848,0" fill="none" stroke="#fff" stroke-linecap="round" stroke-linejoin="round" stroke-width="1"/>
      </g>
    </g>
  </g>
</svg>
