<svg xmlns="http://www.w3.org/2000/svg" xmlns:xlink="http://www.w3.org/1999/xlink" width="200" height="200" viewBox="0 0 200 200">
  <defs>
    <linearGradient id="linear-gradient" x1="1.128" y1="1.128" x2="0.377" y2="0.319" gradientUnits="objectBoundingBox">
      <stop offset="0" stop-color="#0c9dd9"/>
      <stop offset="1" stop-color="#4c4084"/>
    </linearGradient>
    <clipPath id="clip-path">
      <path id="Path_437" data-name="Path 437" d="M0-93.674H132.488V38.8H0Z" transform="translate(0 93.674)" fill="none" stroke="#707070" stroke-width="1"/>
    </clipPath>
  </defs>
  <g id="Group_351" data-name="Group 351" transform="translate(-1099 -289.137)">
    <g id="Rectangle_125" data-name="Rectangle 125" transform="translate(1199 289.137) rotate(45)" stroke="#707070" stroke-width="1" fill="url(#linear-gradient)">
      <rect width="141.421" height="141.421" rx="12" stroke="none"/>
      <rect x="0.5" y="0.5" width="140.421" height="140.421" rx="11.5" fill="none"/>
    </g>
    <g id="Group_344" data-name="Group 344" transform="translate(1131.75 323.307)">
      <g id="Group_329" data-name="Group 329" transform="translate(0 0)" clip-path="url(#clip-path)">
        <g id="Group_324" data-name="Group 324" transform="translate(0.707 0.707)">
          <path id="Path_432" data-name="Path 432" d="M37.085,16.044-13.235-34.277a15.2,15.2,0,0,0-21.509,0l-50.33,50.321a15.2,15.2,0,0,0,0,21.5l50.33,50.332a15.224,15.224,0,0,0,21.509,0L37.085,37.547a15.2,15.2,0,0,0,0-21.5" transform="translate(89.532 38.734)" fill="none" stroke="#fff" stroke-linecap="round" stroke-linejoin="round" stroke-width="1"/>
        </g>
        <g id="Group_325" data-name="Group 325" transform="translate(39.971 56.902)">
          <path id="Path_433" data-name="Path 433" d="M1.594,3C-.548,3-2.771,2.57-3.6,4.166A2.376,2.376,0,0,0-3.341,6.69,5.047,5.047,0,0,0-1.276,7.826c-.1.96-.479,2.195-.556,3.113-.091,1.126-.12,2.4-.12,3.537V21.8c0,4.213-.588,4.76,2.377,4.76a35.942,35.942,0,0,0,5-.119c.561-.264.494-.584.782-1.079l32.5-.027c.154,1.27,1.039,1.225,2.267,1.225,1.13-.006,2.266,0,3.4,0,2.875,0,2.492-.222,2.492-4.76,0-4.646.369-10.024-.791-13.912A7.976,7.976,0,0,0,48.1,6.778a2.351,2.351,0,0,0,.373-2.585C47.688,2.551,45.389,3,43.238,3L40.531-2.261c-2.606-4.961-6.473-4.451-10.669-4.848-1.983-.191-5.4-.139-7.463-.139-3.483,0-11.7-.031-14.142,1.126A8.322,8.322,0,0,0,4.295-2.229C3.371-.474,2.422,1.3,1.594,3Z" transform="translate(3.847 7.254)" fill="none" stroke="#fff" stroke-linecap="round" stroke-linejoin="round" stroke-width="1"/>
        </g>
        <g id="Group_326" data-name="Group 326" transform="translate(56.035 45.842)">
          <path id="Path_434" data-name="Path 434" d="M5.961,1.232A14.357,14.357,0,0,0-4.227-2.975a14.278,14.278,0,0,0-10.163,4.2" transform="translate(14.39 2.975)" fill="none" stroke="#fff" stroke-linecap="round" stroke-linejoin="round" stroke-width="1"/>
        </g>
        <g id="Group_327" data-name="Group 327" transform="translate(50.302 38.524)">
          <path id="Path_435" data-name="Path 435" d="M9.341,1.931A22.484,22.484,0,0,0-6.641-4.663,22.406,22.406,0,0,0-22.552,1.931" transform="translate(22.552 4.663)" fill="none" stroke="#fff" stroke-linecap="round" stroke-linejoin="round" stroke-width="1"/>
        </g>
        <g id="Group_328" data-name="Group 328" transform="translate(44.436 30.505)">
          <path id="Path_436" data-name="Path 436" d="M12.778,2.646A30.641,30.641,0,0,0-9.032-6.387h-.062A30.539,30.539,0,0,0-30.848,2.646" transform="translate(30.848 6.387)" fill="none" stroke="#fff" stroke-linecap="round" stroke-linejoin="round" stroke-width="1"/>
        </g>
      </g>
    </g>
  </g>
</svg>
