<svg xmlns="http://www.w3.org/2000/svg" xmlns:xlink="http://www.w3.org/1999/xlink" width="183.848" height="183.848" viewBox="0 0 183.848 183.848">
  <defs>
    <linearGradient id="linear-gradient" x1="1.393" y1="1.393" x2="0.186" y2="0.186" gradientUnits="objectBoundingBox">
      <stop offset="0" stop-color="#78be20"/>
      <stop offset="1" stop-color="#0c9dd9"/>
    </linearGradient>
    <clipPath id="clip-path">
      <rect id="Rectangle_144" data-name="Rectangle 144" width="80" height="80" fill="none"/>
    </clipPath>
  </defs>
  <g id="Group_371" data-name="Group 371" transform="translate(-707 -3302.932)">
    <rect id="Rectangle_139" data-name="Rectangle 139" width="130" height="130" rx="12" transform="translate(798.924 3302.932) rotate(45)" fill="url(#linear-gradient)"/>
    <g id="Group_380" data-name="Group 380" transform="translate(759 3354.932)">
      <g id="Group_380-2" data-name="Group 380" transform="translate(0 0)" clip-path="url(#clip-path)">
        <path id="Path_488" data-name="Path 488" d="M34.116,7.988c-.033,0-.073,0-.113,0l-.016,0Z" transform="translate(3.688 0.866)" fill="#fff"/>
        <path id="Path_489" data-name="Path 489" d="M50.593,46.072v0a.161.161,0,0,0,.044.017.109.109,0,0,1-.044-.019" transform="translate(5.491 5)" fill="#fff"/>
        <path id="Path_490" data-name="Path 490" d="M40,0A40,40,0,1,0,80,40,40.047,40.047,0,0,0,40,0m6.339,3.183c-.591,1.778-3.657.586-4.921.59a16.442,16.442,0,0,0,3.318-1.518.651.651,0,0,0,.081-.068c.452.059.906.124,1.357.2a10.448,10.448,0,0,0-1.061.607c.408.063.815.127,1.226.188M30.974,4.01c.645.667,1.412-.359,2.059-.683,1.5-.755,3.5-.833,5.16-1.154-.293.782-2.663.5-3.494.8-1.043.381-.576.646-1.306,1.81.31-.032.647.149.963.142v.211c-.716-.061-1.4-.4-1.554.447-.917-1.378-1.519-1.266-2.5-.045.97.538,1.917,1.207,1.156,2.129-.93,1.122-1.491-.259-.541-.835-.862-.4-1.538-1.079-2.215-.212.289-.029.6.119.893.116-.163.238-.329,1.009-.487,1.1-.372.21-1.744-.251-2.154-.3a17.8,17.8,0,0,0-3.077-.043c.188,1.278-1.243.054-1.766-.258.947-.957,2.1-.593,3.183-.443.916.125,2.267.114,2.374-1.04-1-.208-1.483-.15-1.993-.9-.028-.043-.054-.088-.08-.134a37.8,37.8,0,0,1,5.338-1.734.822.822,0,0,0,.035,1.033M1.884,40a37.934,37.934,0,0,1,8.373-23.809c.676.494,1.294.98,1.575,1.222a7.106,7.106,0,0,1,1.4,1.927c.02.039.381.606.528.837a2.912,2.912,0,0,1,.908,1.559,8.2,8.2,0,0,1-.219,2.106c-.211,2.337.12,4.528,1.944,6.168.508.457,1.166.692,1.671,1.172.521.5.459.836.777,1.359.834,1.388,1.951,2.69,2.914,4,.844,1.144,1.2.922.369-.261a26.51,26.51,0,0,1-1.728-2.453c-.05-.092-.522-1.22-.368-1.187,1.3.277,1.569,1.167,2.415,2.212a10.1,10.1,0,0,1,2.029,2.842,4.737,4.737,0,0,0,2.853,2.779,12.825,12.825,0,0,0,2.587,1.239c.88.115,1.348-.457,2.182-.059.554.265.98,1.115,1.668,1.318.66.194,1.1-.055,1.714.364.736.5,1,1.355,1.687,1.88A4.748,4.748,0,0,0,39,46.165c.453.073.95-.265,1.4-.119a1.563,1.563,0,0,1,.75,2.041c-.27.883-1.1,1.428-1.431,2.306a8.573,8.573,0,0,0-.212,2.226c-.1.78-.733-.008-.1,1.317a14.26,14.26,0,0,0,1.1,1.749,14.067,14.067,0,0,0,2.265,3.01c.7.642,2.241,1.389,2.591,2.341a9.323,9.323,0,0,1-.1,3.593c-.327,1.867-.282,4.11-.8,5.844-.5,1.685-1.086,2.19-.655,4.029.183.787.325.4,0,1.418-.094.292,0,.408-.114.7a12.08,12.08,0,0,1-.919,1.392c-.915.065-1.838.1-2.769.1A38.159,38.159,0,0,1,1.884,40M47.159,77.438c.207-.372.738-1.074.826-1.278a9.451,9.451,0,0,1,.54-1.6c.426-.539,1.344-.339,1.165-1.338,2.045-.021,2.927-.333,3.261-2.413-.361-.183-.293-.076-.35-.395.071.379,1.533-.153,1.672.113.108.2,1.96-2.33,2.162-2.543a6.778,6.778,0,0,0,1.318-1.645,8.549,8.549,0,0,1,.549-1.452,2.083,2.083,0,0,1-.065.2c.661-1.048,1.5-.92,2.451-1.345s.264-.306.961-.967c.827-.785,1.017-.335,1.254-1.621a17.343,17.343,0,0,1,.247-2.674c.387-1.08,1.32-1.433,1.939-2.352.473-.7.915-1.847.277-2.552a7.1,7.1,0,0,0-2.83-1.238,18.209,18.209,0,0,1-2.607-.542c-.93-.377-1.7-1.361-2.175.167a3.637,3.637,0,0,1-.768-.568.087.087,0,0,1-.025-.07.135.135,0,0,0,.025.07c.145.145.89-.382,1-.515a12.586,12.586,0,0,1-1.855.212,2.306,2.306,0,0,0,.385.037c-.407.218-.492.144-.435-.054l-.011-.006.011,0c.11-.382.764-1.235.775-1.4.071-.944-1.3-2.023-2.049-2.234-1.02-.295-1.6-.163-2.471-.8a7.384,7.384,0,0,0-3.432-1.783c-.285-.031-.591.122-.887.08-.729-.109-.97-.579-1.577-.732-.747-.187-1.031.457-1.478.454-.655,0-.814-.689-1.773-.111-1.422.858-.65,1.4-2.269.982-.859-.218-1.824.306-2.641-.261a1.736,1.736,0,0,1-.186-2.527c-.368.306-.356-.657-.622-.834-.423-.277-1.112.048-1.6-.069-.662-.159-1.042-.217-.895-.86.163-.693,2-2.578.122-2.527-1.019.027-1.346,1.542-2.429,1.761a2.568,2.568,0,0,1-2.909-1.242c-1.312-2.241.773-5.006,2.9-5.2,1.666-.152,4.1-1.382,5.324.457.354.534,1.23,2.6,1.679,1.262a12.454,12.454,0,0,0-.51-2.92c0,.008-.009.014-.016.022-.006-.082-.014-.161-.023-.238.008.052.023.129.039.216a9.9,9.9,0,0,1,1.324-1.316c-.059.06-.115.116-.172.172.429-.427,1.556-.928,1.753-1.519.106-.324-.385-.744-.13-1.2.2-.348.682-.207.874-.437.268-.327.3-.869.585-1.214s.857-.4,1.155-.672c.681-.62.869-1.328,1.669-1.7.756-.511,1.557-1.388,2.517-.991-.346.4-1.224.641-1.479,1.009-.175.253,1.3.111,1.5.039a11.19,11.19,0,0,0,2.193-1.389,5.252,5.252,0,0,1,4.074-.543c.448.088-.807-1.719-.941-1.873-.509-.582-.635-1.1-1.454-.348a6.689,6.689,0,0,0-.658,1.27c-.519.94-.4.82-1.529,1.4a1.264,1.264,0,0,0,.176-.091c-.828.166-1.615.52-1.948-.5-.112-.341.366-.84.1-1.183-.588-.756-2.537.838-3.224,1.094.355-2.807,3.674-1.327,5.443-1.889.483-.154,2.294-.846,2.393-1.3.151-.676-1.433-1.778-1.794-2.087a4.758,4.758,0,0,1-1.631-2.078c-.464-1.1-.773-2.2-1.937-1.387-.436.3-.121.958-.872,1.06-.471.064-.956-.532-1.225-.813-.408-.425-.831-1.458-1.579-1.549-.641-.08-2.425-1.022-3.263-.411-.643.468.086,2.239.278,2.872.42,1.362.68,1.413-.479,2.269-.569.419-.913-.029-.7,1.1.11.588.743.7.292,1.209a1.246,1.246,0,0,1-1.264.132c-1.005-.473-.109-1.1-.59-1.776-.362-.5-2.292-.911-2.956-1.211-1.463-.661-5.324-1.367-4.138-3.635A7.609,7.609,0,0,1,33.6,11.2c.562-.362,1.265-.463,1.735-.964.265-.28.283-1.058.521-1.249.337-.275,1.309-.15,1.83-.13,2.25-.452.2-3.717,3.164-3.127a7.657,7.657,0,0,1,2.311,1.455c.76.519,1.01.458.77,1.253a6.813,6.813,0,0,1-1.117,1.174,6.553,6.553,0,0,1-1.494.637c1.546,0,2.193-.074,3.456.762a4.6,4.6,0,0,0,3.087,1.145c-.081-.645-1.223-.4-1.178-1.035.038-.539.725.173.815.175.366.021,1.326.456,1.117-.574-.185-.908-2.167-.477-1.531-1.957.892-.1.653.881,1.242,1.093.626.224,1.447-.542,1.583-1.066-.881-.451-3.574-1.174-3.272-2.449q2.7,1.719,5.391,3.435c-1.457,1.3,1.06.571,1.213.607.427.106,1.519,1.046.8,1.222-.742.183-1.125-.889-1.878-.088.624.165,2.831.289,2.245,1.479-.238.476-1.654.394-2.078,1.324.3-.059.632.032.941-.047-.678,1.053.326,1.748.876,2.59.623.958,1.5,2.424,2.739,2.728,2.638.647,2.32-3.643,4.323-4.324.556-.188,1.16-.049,1.718-.207a4.839,4.839,0,0,0,1.45-.964,4.9,4.9,0,0,1,2.731-.85A38.2,38.2,0,0,1,76.03,27.56a.631.631,0,0,0-.1.108c-.18.231-.146.411-.295.682-.069.129-.238.177-.311.335-.16.338.024.877.008,1.254-.019.448-.171.852.079,1.244a5.108,5.108,0,0,0,.942,1.031,1.668,1.668,0,0,0,1.075.558q.211,1.091.359,2.2a5.244,5.244,0,0,0-.533.762c-.333.609-.316.981-.844,1.454-.5.452-1.11.593-1.56,1.172-.42.535-.345.96-.687,1.583-.161.294-.551.413-.725.773-.37.788.058,2.035.022,2.91-.042,1.041-.4,1.975.178,2.884a11.932,11.932,0,0,0,2.19,2.392,9.393,9.393,0,0,0,1.032.816,38.231,38.231,0,0,1-29.7,27.722" transform="translate(0 0)" fill="#fff"/>
      </g>
    </g>
  </g>
</svg>
