<svg xmlns="http://www.w3.org/2000/svg" width="370.68" height="77.438" viewBox="0 0 370.68 77.438">
  <g id="xperi-logo" transform="translate(-0.05 -0.05)">
    <path id="Path_50" data-name="Path 50" d="M124.235,3.6h-8.182A1.885,1.885,0,0,0,114.3,5.353V67.888a1.885,1.885,0,0,0,1.753,1.753h8.182a1.885,1.885,0,0,0,1.753-1.753V5.353A1.684,1.684,0,0,0,124.235,3.6Z" transform="translate(219.61 6.824)" fill="#49378f"/>
    <path id="Path_51" data-name="Path 51" d="M23.807,6.333,17.963.488a2.181,2.181,0,0,0-2.63,0L9.488,6.333a2.181,2.181,0,0,0,0,2.63l5.844,5.844a2.181,2.181,0,0,0,2.63,0l5.844-5.844A2.192,2.192,0,0,0,23.807,6.333Z" transform="translate(17.3 0)" fill="#8dba38"/>
    <path id="Path_52" data-name="Path 52" d="M116.144,59.122H75.233A5.992,5.992,0,0,1,69.1,52.985v-5.26a5.992,5.992,0,0,1,6.137-6.137h34.774a1.885,1.885,0,0,0,1.753-1.753V32.822a1.886,1.886,0,0,0-1.753-1.753H75.233A5.992,5.992,0,0,1,69.1,24.932V20.256a5.992,5.992,0,0,1,6.137-6.137h39.742a1.885,1.885,0,0,0,1.753-1.753V5.353A1.886,1.886,0,0,0,114.975,3.6H59.453A1.886,1.886,0,0,0,57.7,5.353V67.888a1.886,1.886,0,0,0,1.753,1.753h56.983a1.885,1.885,0,0,0,1.753-1.753V60.875A2.188,2.188,0,0,0,116.144,59.122Z" transform="translate(110.814 6.824)" fill="#7c248f"/>
    <path id="Path_53" data-name="Path 53" d="M91.3,10.613A23.951,23.951,0,0,0,74.639,3.6H29.053A1.886,1.886,0,0,0,27.3,5.353v7.013a1.886,1.886,0,0,0,1.753,1.753h2.63a5.992,5.992,0,0,1,6.137,6.137V67.888a1.885,1.885,0,0,0,1.753,1.753h8.182a1.885,1.885,0,0,0,1.753-1.753V57.66a6.613,6.613,0,0,1,6.721-6.721h18.41A22.292,22.292,0,0,0,91.3,43.926,23.951,23.951,0,0,0,98.309,27.27,23.951,23.951,0,0,0,91.3,10.613ZM73.763,40.42H55.645a5.992,5.992,0,0,1-6.137-6.137V20.256a5.992,5.992,0,0,1,6.137-6.137H73.763a13.1,13.1,0,0,1,13.15,13.15A13.284,13.284,0,0,1,73.763,40.42Z" transform="translate(52.38 6.824)" fill="#9a2970"/>
    <path id="Path_54" data-name="Path 54" d="M67.114,62.524,42.86,38.27a1.778,1.778,0,0,1,0-2.338L67.114,11.678a1.778,1.778,0,0,0,0-2.338L61.562,3.788a1.778,1.778,0,0,0-2.338,0L37.016,26a4.586,4.586,0,0,1-6.429,0L8.378,3.788a2.192,2.192,0,0,0-2.63,0L.488,9.34a1.778,1.778,0,0,0,0,2.338L24.742,35.932a1.778,1.778,0,0,1,0,2.338L.488,62.524a1.778,1.778,0,0,0,0,2.338l5.26,5.844a1.778,1.778,0,0,0,2.338,0L30.295,48.5a4.586,4.586,0,0,1,6.429,0h0L58.932,70.706a1.778,1.778,0,0,0,2.338,0l5.552-5.552A1.849,1.849,0,0,0,67.114,62.524Z" transform="translate(0 6.343)" fill="#b51a65"/>
    <path id="Path_55" data-name="Path 55" d="M157.224,68.088a1.073,1.073,0,0,0-.292-.877h0l-14.9-17.533-.877-.877a1.074,1.074,0,0,1-.292-.877,1.607,1.607,0,0,1,.877-1.461h0a17.346,17.346,0,0,0,5.26-3.8,23.13,23.13,0,0,0,7.013-16.072,21.836,21.836,0,0,0-6.721-16.072A22.815,22.815,0,0,0,131.216,3.8H84.753A1.886,1.886,0,0,0,83,5.553v7.013a1.886,1.886,0,0,0,1.753,1.753h2.63a5.992,5.992,0,0,1,6.137,6.137V68.088a1.886,1.886,0,0,0,1.753,1.753h8.182a1.886,1.886,0,0,0,1.753-1.753V55.815a5.992,5.992,0,0,1,6.137-6.137h13.734a4.166,4.166,0,0,1,3.507,1.753l11.689,13.734,2.63,3.214a4.692,4.692,0,0,0,3.214,1.461h9.643C156.639,69.257,157.224,68.673,157.224,68.088ZM130.047,38.574h-18.7a5.992,5.992,0,0,1-6.137-6.137V19.872a5.992,5.992,0,0,1,6.137-6.137h18.7A12.347,12.347,0,0,1,142.32,26.009,12.6,12.6,0,0,1,130.047,38.574Z" transform="translate(159.446 7.208)" fill="#552b9a"/>
    <g id="Group_88" data-name="Group 88" transform="translate(357.288 63.023)">
      <path id="Path_56" data-name="Path 56" d="M129.021,21.6a5.891,5.891,0,0,1,3.214.877,5.734,5.734,0,0,1,2.63,2.63,7.781,7.781,0,0,1,.877,3.507,5.891,5.891,0,0,1-.877,3.214,7.543,7.543,0,0,1-2.63,2.63,6.661,6.661,0,0,1-3.214.877,5.891,5.891,0,0,1-3.214-.877,7.543,7.543,0,0,1-2.63-2.63,6.661,6.661,0,0,1-.877-3.214,7.78,7.78,0,0,1,.877-3.507,5.734,5.734,0,0,1,2.63-2.63A6.661,6.661,0,0,1,129.021,21.6Zm0,1.169a8.533,8.533,0,0,0-2.63.584,6.827,6.827,0,0,0-2.045,2.046,4.937,4.937,0,0,0-.877,2.922,6.533,6.533,0,0,0,.877,2.922,6.827,6.827,0,0,0,2.045,2.046,4.937,4.937,0,0,0,2.922.877,6.533,6.533,0,0,0,2.922-.877,6.827,6.827,0,0,0,2.046-2.046,4.937,4.937,0,0,0,.877-2.922,5.638,5.638,0,0,0-.877-2.922,6.827,6.827,0,0,0-2.046-2.046A6.292,6.292,0,0,0,129.021,22.769ZM126.1,32.12V24.814h2.63c.877,0,1.461,0,1.753.292.292,0,.584.292.877.584s.292.584.292,1.169-.292.877-.584,1.461a2.232,2.232,0,0,1-1.461.584,1.02,1.02,0,0,1,.584.292c.292.292.584.877,1.169,1.461l.877,1.461h-1.461l-.584-1.169a17.3,17.3,0,0,0-1.169-1.753,1.073,1.073,0,0,0-.877-.292h-.877V32.12Zm1.169-4.091h1.461a2.19,2.19,0,0,0,1.461-.292,1.074,1.074,0,0,0,.292-.877c0-.292,0-.292-.292-.584,0-.292-.292-.292-.584-.292h-2.338Z" transform="translate(-122.3 -21.6)" fill="#49378f"/>
    </g>
  </g>
</svg>
