<svg xmlns="http://www.w3.org/2000/svg" width="59.726" height="50" viewBox="0 0 59.726 50">
  <g id="noun-briefcase-1767236" transform="translate(-75.939 -50.252)">
    <path id="Path_296" data-name="Path 296" d="M80.263,57.1h15.85V54.791a4.614,4.614,0,0,1,4.539-4.539h10.23a4.566,4.566,0,0,1,4.539,4.539V57.1h15.85a4.351,4.351,0,0,1,4.395,4.323V95.929a4.351,4.351,0,0,1-4.395,4.323H80.262a4.336,4.336,0,0,1-4.323-4.323V61.419A4.336,4.336,0,0,1,80.262,57.1Zm9.8,21.11L77.526,67.4v28.53a2.737,2.737,0,0,0,2.738,2.738h51.009a2.8,2.8,0,0,0,2.81-2.738V67.4L121.546,78.206ZM77.526,65.237,90.638,76.548H120.9l13.184-11.311V61.419a2.8,2.8,0,0,0-2.81-2.738H80.263a2.737,2.737,0,0,0-2.738,2.738v3.819ZM97.7,57.1h16.138V54.791a2.967,2.967,0,0,0-2.954-2.954h-10.23A3.015,3.015,0,0,0,97.7,54.791V57.1Z" fill="#fff" fill-rule="evenodd"/>
  </g>
</svg>
