<svg xmlns="http://www.w3.org/2000/svg" width="41.833" height="50" viewBox="0 0 41.833 50">
  <g id="noun-company-2325043" transform="translate(-139.441 -28)">
    <path id="Path_333" data-name="Path 333" d="M181.274,51.5a.759.759,0,0,0-.778-.778H165.552V28.778a.759.759,0,0,0-.778-.778c-17.222,0-24.833,8.667-25.167,9.056a.9.9,0,0,0-.167.5V78h41.833ZM157,76.445h-9.055V68.556H157Zm7,0h-5.444V67.778a.759.759,0,0,0-.778-.778H147.163a.759.759,0,0,0-.778.778v8.667H141V37.834a24.076,24.076,0,0,1,5.556-4.055A37.24,37.24,0,0,1,164,29.556Zm15.722,0H165.552V52.278h14.167Z" fill="#fff"/>
    <path id="Path_334" data-name="Path 334" d="M489.658,311.78a.759.759,0,0,0,.778-.778V308.78a.778.778,0,0,0-1.556,0V311A.759.759,0,0,0,489.658,311.78Z" transform="translate(-314.773 -252.224)" fill="#fff"/>
    <path id="Path_335" data-name="Path 335" d="M440.938,311.78a.759.759,0,0,0,.778-.778V308.78a.778.778,0,0,0-1.556,0V311A.759.759,0,0,0,440.938,311.78Z" transform="translate(-270.886 -252.224)" fill="#fff"/>
    <path id="Path_336" data-name="Path 336" d="M489.658,375.62a.759.759,0,0,0,.778-.778V372.62a.778.778,0,0,0-1.556,0v2.222A.76.76,0,0,0,489.658,375.62Z" transform="translate(-314.773 -309.731)" fill="#fff"/>
    <path id="Path_337" data-name="Path 337" d="M440.938,375.62a.759.759,0,0,0,.778-.778V372.62a.778.778,0,0,0-1.556,0v2.222A.76.76,0,0,0,440.938,375.62Z" transform="translate(-270.886 -309.731)" fill="#fff"/>
    <path id="Path_338" data-name="Path 338" d="M489.658,439.46a.759.759,0,0,0,.778-.778V436.46a.778.778,0,1,0-1.556,0v2.222A.76.76,0,0,0,489.658,439.46Z" transform="translate(-314.773 -367.237)" fill="#fff"/>
    <path id="Path_339" data-name="Path 339" d="M440.938,439.46a.759.759,0,0,0,.778-.778V436.46a.778.778,0,1,0-1.556,0v2.222A.76.76,0,0,0,440.938,439.46Z" transform="translate(-270.886 -367.237)" fill="#fff"/>
    <path id="Path_340" data-name="Path 340" d="M207.978,239.932a.759.759,0,0,0,.778-.778V237.1a.778.778,0,1,0-1.556,0v2.055A.8.8,0,0,0,207.978,239.932Z" transform="translate(-61.037 -187.654)" fill="#fff"/>
    <path id="Path_341" data-name="Path 341" d="M261.178,239.932a.759.759,0,0,0,.778-.778V237.1a.778.778,0,1,0-1.556,0v2.055A.76.76,0,0,0,261.178,239.932Z" transform="translate(-108.96 -187.654)" fill="#fff"/>
    <path id="Path_342" data-name="Path 342" d="M207.978,298.732a.759.759,0,0,0,.778-.778V295.9a.778.778,0,0,0-1.556,0v2.055A.8.8,0,0,0,207.978,298.732Z" transform="translate(-61.037 -240.621)" fill="#fff"/>
    <path id="Path_343" data-name="Path 343" d="M261.178,298.732a.759.759,0,0,0,.778-.778V295.9a.778.778,0,0,0-1.556,0v2.055A.76.76,0,0,0,261.178,298.732Z" transform="translate(-108.96 -240.621)" fill="#fff"/>
    <path id="Path_344" data-name="Path 344" d="M316.058,239.932a.759.759,0,0,0,.778-.778V237.1a.778.778,0,1,0-1.556,0v2.055A.759.759,0,0,0,316.058,239.932Z" transform="translate(-158.395 -187.654)" fill="#fff"/>
    <path id="Path_345" data-name="Path 345" d="M316.058,298.732a.759.759,0,0,0,.778-.778V295.9a.778.778,0,0,0-1.556,0v2.055A.759.759,0,0,0,316.058,298.732Z" transform="translate(-158.395 -240.621)" fill="#fff"/>
    <path id="Path_346" data-name="Path 346" d="M207.978,357.532a.759.759,0,0,0,.778-.778V354.7a.778.778,0,1,0-1.556,0v2.055A.837.837,0,0,0,207.978,357.532Z" transform="translate(-61.037 -293.588)" fill="#fff"/>
    <path id="Path_347" data-name="Path 347" d="M261.178,357.532a.759.759,0,0,0,.778-.778V354.7a.778.778,0,1,0-1.556,0v2.055A.8.8,0,0,0,261.178,357.532Z" transform="translate(-108.96 -293.588)" fill="#fff"/>
    <path id="Path_348" data-name="Path 348" d="M316.058,357.532a.759.759,0,0,0,.778-.778V354.7a.778.778,0,1,0-1.556,0v2.055A.8.8,0,0,0,316.058,357.532Z" transform="translate(-158.395 -293.588)" fill="#fff"/>
    <path id="Path_349" data-name="Path 349" d="M261.178,122.332a.759.759,0,0,0,.778-.778V119.5a.778.778,0,1,0-1.556,0v2.055A.76.76,0,0,0,261.178,122.332Z" transform="translate(-108.96 -81.721)" fill="#fff"/>
    <path id="Path_350" data-name="Path 350" d="M316.058,122.332a.759.759,0,0,0,.778-.778V119.5a.778.778,0,1,0-1.556,0v2.055A.759.759,0,0,0,316.058,122.332Z" transform="translate(-158.395 -81.721)" fill="#fff"/>
    <path id="Path_351" data-name="Path 351" d="M207.978,181.132a.759.759,0,0,0,.778-.778V178.3a.778.778,0,0,0-1.556,0v2.055A.8.8,0,0,0,207.978,181.132Z" transform="translate(-61.037 -134.688)" fill="#fff"/>
    <path id="Path_352" data-name="Path 352" d="M261.178,181.132a.759.759,0,0,0,.778-.778V178.3a.778.778,0,1,0-1.556,0v2.055A.76.76,0,0,0,261.178,181.132Z" transform="translate(-108.96 -134.688)" fill="#fff"/>
    <path id="Path_353" data-name="Path 353" d="M316.058,181.132a.759.759,0,0,0,.778-.778V178.3a.778.778,0,1,0-1.556,0v2.055A.76.76,0,0,0,316.058,181.132Z" transform="translate(-158.395 -134.688)" fill="#fff"/>
  </g>
</svg>
