<svg xmlns="http://www.w3.org/2000/svg" width="33.333" height="25" viewBox="0 0 33.333 25">
  <path id="Icon_awesome-envelope" data-name="Icon awesome-envelope" d="M32.7,12.755a.392.392,0,0,1,.632.306V26.375A3.126,3.126,0,0,1,30.208,29.5H3.125A3.126,3.126,0,0,1,0,26.375V13.068a.389.389,0,0,1,.632-.306c1.458,1.133,3.392,2.572,10.033,7.4,1.374,1,3.691,3.112,6,3.1,2.324.02,4.688-2.135,6.009-3.1C29.316,15.333,31.243,13.888,32.7,12.755ZM16.667,21.167c1.51.026,3.685-1.9,4.779-2.7,8.639-6.27,9.3-6.816,11.289-8.379a1.558,1.558,0,0,0,.6-1.23V7.625A3.126,3.126,0,0,0,30.208,4.5H3.125A3.126,3.126,0,0,0,0,7.625V8.862a1.567,1.567,0,0,0,.6,1.23c1.992,1.556,2.65,2.109,11.289,8.379C12.982,19.266,15.156,21.193,16.667,21.167Z" transform="translate(0 -4.5)" fill="#fff"/>
</svg>
