<svg id="Component_50_1" data-name="Component 50 – 1" xmlns="http://www.w3.org/2000/svg" width="49.999" height="54.995" viewBox="0 0 49.999 54.995">
  <path id="Path_412" data-name="Path 412" d="M33.36,22.148a8.866,8.866,0,1,0-17.733,0c0,6.782,8.025,13.258,8.366,13.531a.821.821,0,0,0,1,0c.342-.274,8.367-6.762,8.367-13.531M23.942,33.511c-2.02-1.859-6.716-6.688-6.716-11.363a7.266,7.266,0,0,1,14.533,0c0,4.675-4.7,9.5-6.716,11.363l-.55.507Z" transform="translate(0.508 0.434)" fill="#fff"/>
  <path id="Path_413" data-name="Path 413" d="M49.2,24.2H45.138l-.057-.751A20.272,20.272,0,0,0,26.55,4.919L25.8,4.861V.8a.8.8,0,1,0-1.6,0V4.862l-.752.057A20.274,20.274,0,0,0,4.918,23.45L4.86,24.2H.8a.8.8,0,0,0,0,1.6H4.861l.057.751A20.273,20.273,0,0,0,23.449,45.082l.752.057V49.2a.8.8,0,0,0,1.6,0V45.139l.751-.057A20.272,20.272,0,0,0,45.081,26.551l.057-.751H49.2a.8.8,0,0,0,0-1.6M25,43.56A18.56,18.56,0,1,1,43.56,25,18.58,18.58,0,0,1,25,43.56" fill="#fff"/>
  <path id="Path_414" data-name="Path 414" d="M24.289,19.532A2.413,2.413,0,1,0,26.7,21.945a2.415,2.415,0,0,0-2.413-2.413" transform="translate(0.711 30.637)" fill="#fff"/>
</svg>
