<svg id="noun-benefit-1337911" xmlns="http://www.w3.org/2000/svg" width="70.898" height="50" viewBox="0 0 70.898 50">
  <path id="Path_253" data-name="Path 253" d="M175.621,261.874a5.577,5.577,0,0,0-2.315.578L157,270.29a3.861,3.861,0,0,0-3.941-3.138h0l-8.884.271a20.619,20.619,0,0,1-6.127-1.155,25.918,25.918,0,0,0-7.741-1.22,34.862,34.862,0,0,0-10.527,2.245v-3.1h0a.825.825,0,0,0-.825-.825h-8.936a.825.825,0,0,0-.825.825v24.525h0a.825.825,0,0,0,.825.825h8.936a.825.825,0,0,0,.825-.825v-2.8c11.471-2.22,18.134,1.213,27.913,1.213h0c1.672,0,3.8-.918,6.417-2.274s5.632-3.193,8.69-5.167c6.115-3.949,12.391-8.453,15.689-10.688h0a3.577,3.577,0,0,0,1.576-2.548,4.041,4.041,0,0,0-.714-2.742,4.383,4.383,0,0,0-3.727-1.841Zm.2,1.6a2.587,2.587,0,0,1,2.166,1.171,2.425,2.425,0,0,1,.435,1.617,1.83,1.83,0,0,1-.863,1.372h0c-3.346,2.267-9.592,6.751-15.66,10.668-3.034,1.959-6.022,3.775-8.555,5.088a16.694,16.694,0,0,1-5.659,2.089h0c-9.3,0-16.213-3.424-27.912-1.242v-2.4h0a.824.824,0,1,0-1.649,0v6.051h-2.473V265.017h2.473v6.042h0a.824.824,0,1,0,1.649,0v-2A35.551,35.551,0,0,1,130.3,266.7a24.043,24.043,0,0,1,7.283,1.155,22.143,22.143,0,0,0,6.591,1.22h.025l8.9-.272h0a2.185,2.185,0,0,1,2.291,2.07,2.244,2.244,0,0,1-2.348,2.07h0l-16.932.726a.824.824,0,1,0,.071,1.647l16.929-.725h0a4.123,4.123,0,0,0,3.651-2.362h0a.8.8,0,0,0,.083-.035l17.172-8.252a4.13,4.13,0,0,1,1.8-.459Zm-64.984,1.538H114v22.876h-3.166Z" transform="translate(-109.191 -239.541)" fill="#fff" fill-rule="evenodd"/>
  <path id="Path_254" data-name="Path 254" d="M282.919,180.169a.825.825,0,0,0-.812.836v4.757h-4.757a.824.824,0,1,0,0,1.649h4.757v4.757a.825.825,0,1,0,1.649,0v-4.757h4.756a.824.824,0,1,0,0-1.649h-4.757v-4.757h0a.825.825,0,0,0-.837-.836Z" transform="translate(-243.082 -169.865)" fill="#fff" fill-rule="evenodd"/>
  <path id="Path_255" data-name="Path 255" d="M250.822,110.169a.825.825,0,0,0-.812.836v2.4h-2.4a.825.825,0,1,0,0,1.649h2.4v2.39a.824.824,0,1,0,1.649,0v-2.39h2.391a.825.825,0,1,0,0-1.649h-2.39V111h0a.824.824,0,0,0-.837-.836Z" transform="translate(-204.241 -110.169)" fill="#fff" fill-rule="evenodd"/>
  <path id="Path_256" data-name="Path 256" d="M342.441,110.169a.824.824,0,0,0-.811.836v2.4h-2.4a.825.825,0,1,0,0,1.649h2.4v2.39a.824.824,0,1,0,1.649,0v-2.39h2.39a.825.825,0,1,0,0-1.649h-2.39V111h0a.825.825,0,0,0-.837-.836Z" transform="translate(-309.347 -110.169)" fill="#fff" fill-rule="evenodd"/>
</svg>
