<?xml version="1.0" encoding="utf-8"?>
<!-- Generator: Adobe Illustrator 26.2.1, SVG Export Plug-In . SVG Version: 6.00 Build 0)  -->
<svg version="1.1" id="Layer_1" xmlns="http://www.w3.org/2000/svg" xmlns:xlink="http://www.w3.org/1999/xlink" x="0px" y="0px"
	 viewBox="0 0 220.3 220.3" style="enable-background:new 0 0 220.3 220.3;" xml:space="preserve">
<style type="text/css">
	.st0{fill:url(#SVGID_1_);}
	.st1{fill:url(#SVGID_00000038409053015023960380000008721801522221422519_);}
	.st2{fill:#30C3E2;}
	.st3{fill:url(#SVGID_00000167374632376707362340000005460901607905500856_);}
	.st4{fill:url(#SVGID_00000167392731466785407910000015206959825258381961_);}
	.st5{enable-background:new    ;}
	.st6{clip-path:url(#SVGID_00000044894096735802167450000011434314705314475702_);enable-background:new    ;}
	.st7{fill:#828282;}
	.st8{fill:#858585;}
	.st9{fill:#878787;}
	.st10{clip-path:url(#SVGID_00000093158289343472666360000011968691139594829706_);enable-background:new    ;}
	.st11{fill:#8D8D8D;}
	.st12{fill:#BDBDBD;}
	.st13{clip-path:url(#SVGID_00000078766221577412565300000007657379082903265408_);}
	.st14{clip-path:url(#SVGID_00000067197510151673131270000002561979201671977403_);enable-background:new    ;}
	.st15{fill:url(#SVGID_00000019650871901770082960000003275611880889700513_);}
	.st16{clip-path:url(#SVGID_00000080922056455314838370000011329185211340736390_);}
	.st17{fill:url(#SVGID_00000037662262007542929740000002060837519700429184_);}
	.st18{clip-path:url(#SVGID_00000016051785100628994210000003237062301239383424_);}
	.st19{fill:#FFFFFF;}
	.st20{fill:url(#culture-background_00000010288001830771581320000017409796741261607314_);}
	.st21{fill:url(#culture-background-hover_00000132809948340816322570000009391236099328438161_);}
	.st22{fill:url(#programs-background_00000046340518989253263600000005221780686111998111_);}
	.st23{fill:url(#programs-background-hover_00000031168354716541098410000010283679623655629993_);}
	.st24{fill:url(#location-background_00000053519474433236022990000000032884298849106827_);}
	.st25{fill:url(#location-background-hover_00000099655248698666437340000017797276006540273333_);}
	.st26{fill:url(#careers-background_00000070110556036962044990000011616691723080714371_);}
	.st27{fill:url(#careers-background-hover_00000047765768037203243190000006719219831172850079_);}
	.st28{fill:url(#Rectangle_63_00000173138111927594224400000011304161815633238194_);}
	.st29{fill:url(#Rectangle_64_00000043417695530329244280000009610779676716618125_);}
	.st30{fill:url(#Rectangle_65_00000152237809404739316520000007338014937776595592_);}
	.st31{fill:url(#Rectangle_61-2_00000034781367603561790830000001711700017955686283_);}
	.st32{fill:url(#Rectangle_62-2_00000074402537867112287180000006944141924672786594_);}
	.st33{fill:url(#Rectangle_60-2_00000153673333187519791650000017098241546047085978_);}
	.st34{opacity:0.25;}
	.st35{fill:none;}
	.st36{fill:none;stroke:#78BE20;stroke-width:2;}
	.st37{fill:url(#Polygon_2-2_00000084531137426237717930000000492264260565345950_);}
	.st38{fill:none;stroke:#0C9DD9;stroke-width:2;}
	.st39{fill:url(#Polygon_2-2_00000160169784891575040450000004972944961603872652_);}
</style>
<g id="Component_31_7_00000011015854114161395410000015063653071977955250_" transform="translate(60 60)">
	<g transform="matrix(1, 0, 0, 1, -60, -60)" class="st34">
		<path id="Rectangle_68-2_00000152957694595370778840000013809847427671755404_" class="st19" d="M127.8,7.3L213,92.5
			c9.8,9.8,9.8,25.6,0,35.4L127.8,213c-9.8,9.8-25.6,9.8-35.4,0L7.3,127.8c-9.8-9.8-9.8-25.6,0-35.4L92.5,7.3
			C102.2-2.4,118.1-2.4,127.8,7.3z"/>
	</g>
	<g id="Rectangle_69_00000047769859911638025820000008890498369435388346_" transform="translate(120.518 37) rotate(45)">
		<path class="st35" d="M-79.5,0h78.4c11,0,20,9,20,20v78.4c0,11-9,20-20,20h-78.4c-11,0-20-9-20-20V20C-99.5,9-90.5,0-79.5,0z"/>
		<path class="st38" d="M-79.5,1h78.4c10.5,0,19,8.5,19,19v78.4c0,10.5-8.5,19-19,19h-78.4c-10.5,0-19-8.5-19-19V20
			C-98.5,9.5-90,1-79.5,1z"/>
	</g>
	<g transform="matrix(1, 0, 0, 1, -60, -60)">
		
			<linearGradient id="Polygon_2-2_00000030456048360765785930000005758585512889076380_" gradientUnits="userSpaceOnUse" x1="-4581.1128" y1="-711.3646" x2="-4580.812" y2="-711.8646" gradientTransform="matrix(4.615520e-15 75.3772 67.9907 -4.163230e-15 48473.5312 345414)">
			<stop  offset="0" style="stop-color:#E4077D"/>
			<stop  offset="1" style="stop-color:#6226A7"/>
		</linearGradient>
		
			<path id="Polygon_2-2_00000093875349294721880120000016770575620354548098_" style="fill:url(#Polygon_2-2_00000030456048360765785930000005758585512889076380_);" d="
			M145.6,101.7c4.8,2.8,6.4,8.9,3.7,13.7c-0.9,1.5-2.1,2.8-3.7,3.7l-48,27.7c-4.8,2.8-10.9,1.1-13.7-3.7c-0.9-1.5-1.3-3.2-1.3-5
			V82.7c0-5.5,4.5-10,10-10c1.8,0,3.5,0.5,5,1.3L145.6,101.7z"/>
	</g>
</g>
</svg>
