<svg xmlns="http://www.w3.org/2000/svg" width="90.951" height="19" viewBox="0 0 90.951 19">
  <g id="xperi-logo" transform="translate(-0.05 -0.05)">
    <path id="Path_50" data-name="Path 50" d="M116.738,3.6H114.73a.463.463,0,0,0-.43.43V19.374a.463.463,0,0,0,.43.43h2.008a.463.463,0,0,0,.43-.43V4.03A.413.413,0,0,0,116.738,3.6Z" transform="translate(-32.333 -1.005)" fill="#fff"/>
    <path id="Path_51" data-name="Path 51" d="M12.671,1.592,11.237.158a.535.535,0,0,0-.645,0L9.158,1.592a.535.535,0,0,0,0,.645l1.434,1.434a.535.535,0,0,0,.645,0l1.434-1.434A.538.538,0,0,0,12.671,1.592Z" transform="translate(-2.547 0)" fill="#fff"/>
    <path id="Path_52" data-name="Path 52" d="M72.04,17.223H62A1.47,1.47,0,0,1,60.5,15.717V14.427A1.47,1.47,0,0,1,62,12.921h8.532a.463.463,0,0,0,.43-.43V10.77a.463.463,0,0,0-.43-.43H62A1.47,1.47,0,0,1,60.5,8.834V7.687A1.47,1.47,0,0,1,62,6.181h9.751a.463.463,0,0,0,.43-.43V4.03a.463.463,0,0,0-.43-.43H58.13a.463.463,0,0,0-.43.43V19.374a.463.463,0,0,0,.43.43H72.112a.463.463,0,0,0,.43-.43V17.653A.537.537,0,0,0,72.04,17.223Z" transform="translate(-16.315 -1.005)" fill="#fff"/>
    <path id="Path_53" data-name="Path 53" d="M43,5.321A5.877,5.877,0,0,0,38.915,3.6H27.73a.463.463,0,0,0-.43.43V5.751a.463.463,0,0,0,.43.43h.645a1.47,1.47,0,0,1,1.506,1.506V19.374a.463.463,0,0,0,.43.43h2.008a.463.463,0,0,0,.43-.43V16.864A1.623,1.623,0,0,1,34.4,15.215h4.517A5.47,5.47,0,0,0,43,13.495a5.877,5.877,0,0,0,1.721-4.087A5.877,5.877,0,0,0,43,5.321Zm-4.3,7.313H34.255a1.47,1.47,0,0,1-1.506-1.506V7.687a1.47,1.47,0,0,1,1.506-1.506H38.7a3.213,3.213,0,0,1,3.226,3.226A3.259,3.259,0,0,1,38.7,12.634Z" transform="translate(-7.712 -1.005)" fill="#fff"/>
    <path id="Path_54" data-name="Path 54" d="M16.505,17.869l-5.951-5.951a.436.436,0,0,1,0-.574l5.951-5.951a.436.436,0,0,0,0-.574L15.143,3.458a.436.436,0,0,0-.574,0L9.12,8.907a1.125,1.125,0,0,1-1.577,0L2.093,3.458a.538.538,0,0,0-.645,0L.158,4.82a.436.436,0,0,0,0,.574l5.951,5.951a.436.436,0,0,1,0,.574L.158,17.869a.436.436,0,0,0,0,.574l1.291,1.434a.436.436,0,0,0,.574,0l5.449-5.449a1.125,1.125,0,0,1,1.577,0h0L14.5,19.877a.436.436,0,0,0,.574,0l1.362-1.362A.454.454,0,0,0,16.505,17.869Z" transform="translate(0 -0.934)" fill="#fff"/>
    <path id="Path_55" data-name="Path 55" d="M101.212,19.574a.263.263,0,0,0-.072-.215h0l-3.657-4.3-.215-.215a.263.263,0,0,1-.072-.215.394.394,0,0,1,.215-.358h0a4.256,4.256,0,0,0,1.291-.932,5.675,5.675,0,0,0,1.721-3.943,5.358,5.358,0,0,0-1.649-3.943A5.6,5.6,0,0,0,94.83,3.8H83.43a.463.463,0,0,0-.43.43V5.951a.463.463,0,0,0,.43.43h.645a1.47,1.47,0,0,1,1.506,1.506V19.574a.463.463,0,0,0,.43.43h2.008a.463.463,0,0,0,.43-.43V16.563a1.47,1.47,0,0,1,1.506-1.506h3.37a1.022,1.022,0,0,1,.86.43l2.868,3.37.645.789a1.151,1.151,0,0,0,.789.358h2.366C101.068,19.861,101.212,19.717,101.212,19.574Zm-6.668-7.242H89.955a1.47,1.47,0,0,1-1.506-1.506V7.743a1.47,1.47,0,0,1,1.506-1.506h4.589a3.03,3.03,0,0,1,3.011,3.011A3.092,3.092,0,0,1,94.544,12.332Z" transform="translate(-23.475 -1.061)" fill="#fff"/>
    <g id="Group_88" data-name="Group 88" transform="translate(87.703 15.501)">
      <path id="Path_56" data-name="Path 56" d="M123.949,21.6a1.445,1.445,0,0,1,.789.215,1.407,1.407,0,0,1,.645.645,1.909,1.909,0,0,1,.215.86,1.445,1.445,0,0,1-.215.789,1.851,1.851,0,0,1-.645.645,1.634,1.634,0,0,1-.789.215,1.445,1.445,0,0,1-.789-.215,1.851,1.851,0,0,1-.645-.645,1.634,1.634,0,0,1-.215-.789,1.909,1.909,0,0,1,.215-.86,1.407,1.407,0,0,1,.645-.645A1.634,1.634,0,0,1,123.949,21.6Zm0,.287a2.094,2.094,0,0,0-.645.143,1.675,1.675,0,0,0-.5.5,1.211,1.211,0,0,0-.215.717,1.6,1.6,0,0,0,.215.717,1.675,1.675,0,0,0,.5.5,1.211,1.211,0,0,0,.717.215,1.6,1.6,0,0,0,.717-.215,1.675,1.675,0,0,0,.5-.5,1.211,1.211,0,0,0,.215-.717,1.383,1.383,0,0,0-.215-.717,1.675,1.675,0,0,0-.5-.5A1.544,1.544,0,0,0,123.949,21.887Zm-.717,2.294V22.389h.645c.215,0,.358,0,.43.072.072,0,.143.072.215.143s.072.143.072.287-.072.215-.143.358a.548.548,0,0,1-.358.143.25.25,0,0,1,.143.072c.072.072.143.215.287.358l.215.358h-.359l-.143-.287a4.246,4.246,0,0,0-.287-.43.263.263,0,0,0-.215-.072h-.215v.789h-.287Zm.287-1h.358a.537.537,0,0,0,.358-.072.263.263,0,0,0,.072-.215c0-.072,0-.072-.072-.143,0-.072-.072-.072-.143-.072h-.574Z" transform="translate(-122.3 -21.6)" fill="#fff"/>
    </g>
  </g>
</svg>
