<?xml version="1.0" encoding="utf-8"?>
<!-- Generator: Adobe Illustrator 26.2.1, SVG Export Plug-In . SVG Version: 6.00 Build 0)  -->
<svg version="1.1" id="Layer_1" xmlns="http://www.w3.org/2000/svg" xmlns:xlink="http://www.w3.org/1999/xlink" x="0px" y="0px"
	 viewBox="0 0 240.9 240.9" style="enable-background:new 0 0 240.9 240.9;" xml:space="preserve">
<style type="text/css">
	.st0{fill:url(#SVGID_1_);}
	.st1{fill:url(#SVGID_00000080189846273024916120000004045742827167951506_);}
	.st2{fill:#30C3E2;}
	.st3{fill:url(#SVGID_00000178920055847192096330000013784999491197419912_);}
	.st4{fill:url(#SVGID_00000044158382547400137420000003694399043738801331_);}
	.st5{enable-background:new    ;}
	.st6{clip-path:url(#SVGID_00000119831400899301513210000010604080539810198667_);enable-background:new    ;}
	.st7{fill:#828282;}
	.st8{fill:#858585;}
	.st9{fill:#878787;}
	.st10{clip-path:url(#SVGID_00000130629614119966251770000007749359393554709931_);enable-background:new    ;}
	.st11{fill:#8D8D8D;}
	.st12{fill:#BDBDBD;}
	.st13{clip-path:url(#SVGID_00000168084797149518193860000014497074119149737368_);}
	.st14{clip-path:url(#SVGID_00000086661454665719536670000000693140678581868472_);enable-background:new    ;}
	.st15{fill:url(#SVGID_00000013150977456679404900000006757611528019416220_);}
	.st16{clip-path:url(#SVGID_00000128484421320239248710000006696373825171496869_);}
	.st17{fill:url(#SVGID_00000016792536255509186100000013725173578572786593_);}
	.st18{clip-path:url(#SVGID_00000172422095852937754860000005237859421943633037_);}
	.st19{fill:#FFFFFF;}
	.st20{fill:url(#culture-background_00000085210071207795295510000000721664196870372287_);}
	.st21{fill:url(#culture-background-hover_00000025430818783495425080000009396738050074097313_);}
	.st22{fill:url(#programs-background_00000170980906957103670780000002214226612530015402_);}
	.st23{fill:url(#programs-background-hover_00000132811062363751959980000004461989039388553106_);}
	.st24{fill:url(#location-background_00000129204103613682784910000008103020308003337653_);}
	.st25{fill:url(#location-background-hover_00000127029481946981639350000000528467525347361159_);}
	.st26{fill:url(#careers-background_00000105422226684076369970000004056912619436622481_);}
	.st27{fill:url(#careers-background-hover_00000181080647959963049480000013788061938160781726_);}
	.st28{fill:url(#Rectangle_63_00000028320956189775145710000011971416770344974521_);}
	.st29{fill:url(#Rectangle_64_00000180334646102844467700000006377772156028413616_);}
	.st30{fill:url(#Rectangle_65_00000067955092184145455320000004166252228080687243_);}
	.st31{fill:url(#Rectangle_61-2_00000069363064910898772860000008409776690211116186_);}
	.st32{fill:url(#Rectangle_62-2_00000171700907069076034760000001784562167267046059_);}
	.st33{fill:url(#Rectangle_60-2_00000051353645127644084910000015613563604977667468_);}
	.st34{opacity:0.25;}
	.st35{fill:none;}
	.st36{fill:none;stroke:#78BE20;stroke-width:2;}
	.st37{fill:url(#Polygon_2-2_00000140715073932432677770000015652570205848650416_);}
	.st38{fill:none;stroke:#0C9DD9;stroke-width:2;}
	.st39{fill:url(#Polygon_2-2_00000139274466453415450240000015367137681365783230_);}
</style>
<g id="Component_31_7" transform="translate(60 60)">
	<g transform="matrix(1, 0, 0, 1, -60, -60)" class="st34">
		<path id="Rectangle_68-2" class="st19" d="M138.1,7.3l95.5,95.5c9.8,9.8,9.8,25.6,0,35.4l-95.5,95.5c-9.8,9.8-25.6,9.8-35.4,0
			L7.3,138.1c-9.8-9.8-9.8-25.6,0-35.4l95.5-95.5C112.5-2.4,128.4-2.4,138.1,7.3z"/>
	</g>
	<g id="Rectangle_69" transform="translate(130.815 37) rotate(45)">
		<path class="st35" d="M-79.5,0h93c11,0,20,9,20,20v93c0,11-9,20-20,20h-93c-11,0-20-9-20-20V20C-99.5,9-90.5,0-79.5,0z"/>
		<path class="st36" d="M-79.5,1h93c10.5,0,19,8.5,19,19v93c0,10.5-8.5,19-19,19h-93c-10.5,0-19-8.5-19-19V20C-98.5,9.5-90,1-79.5,1
			z"/>
	</g>
	<g transform="matrix(1, 0, 0, 1, -60, -60)">
		
			<linearGradient id="Polygon_2-2_00000129924902721549182340000013118694957880826774_" gradientUnits="userSpaceOnUse" x1="-4322.8027" y1="-704.8688" x2="-4322.5015" y2="-705.3688" gradientTransform="matrix(4.615520e-15 75.3772 67.9907 -4.163230e-15 48043.1758 325953.5938)">
			<stop  offset="0" style="stop-color:#78BE20"/>
			<stop  offset="1" style="stop-color:#0C9DD9"/>
		</linearGradient>
		<path id="Polygon_2-2" style="fill:url(#Polygon_2-2_00000129924902721549182340000013118694957880826774_);" d="M156.9,112
			c4.8,2.8,6.4,8.9,3.7,13.7c-0.9,1.5-2.1,2.8-3.7,3.7L109,157c-4.8,2.8-10.9,1.1-13.7-3.7c-0.9-1.5-1.3-3.2-1.3-5V93
			c0-5.5,4.5-10,10-10c1.8,0,3.5,0.5,5,1.3L156.9,112z"/>
	</g>
</g>
</svg>
