<?xml version="1.0" standalone="no"?>
<!DOCTYPE svg PUBLIC "-//W3C//DTD SVG 20010904//EN"
 "http://www.w3.org/TR/2001/REC-SVG-20010904/DTD/svg10.dtd">
<svg version="1.0" xmlns="http://www.w3.org/2000/svg"
 width="1000.000000pt" height="348.000000pt" viewBox="0 0 1000.000000 348.000000"
 preserveAspectRatio="xMidYMid meet">

<g transform="translate(0.000000,348.000000) scale(0.100000,-0.100000)"
fill="#000000" stroke="none">
<path d="M300 2085 l0 -1095 135 0 135 0 0 494 c0 441 2 495 16 500 20 8 897
8 918 0 14 -5 16 -51 16 -403 0 -218 0 -440 0 -493 l0 -98 135 0 135 0 0 1095
0 1095 -135 0 -135 0 -1 -232 c0 -128 0 -340 1 -470 l1 -238 -475 0 -476 0 0
470 0 470 -135 0 -135 0 0 -1095z"/>
<path d="M6871 3140 c-105 -25 -158 -137 -116 -245 25 -68 72 -99 154 -103 56
-3 71 0 101 20 91 62 115 172 57 259 -37 56 -125 87 -196 69z"/>
<path d="M3730 2670 l0 -180 -105 0 -105 0 0 -110 0 -110 93 0 c50 0 97 -4
104 -8 9 -6 13 -139 15 -547 l3 -540 24 -49 c25 -51 84 -97 151 -117 19 -6 99
-13 178 -16 l142 -6 0 122 0 121 -80 0 c-95 0 -146 18 -160 55 -6 16 -10 210
-10 500 0 422 2 474 16 479 9 3 63 6 120 6 l104 0 0 110 0 110 -120 0 -120 0
0 180 0 180 -125 0 -125 0 0 -180z"/>
<path d="M2524 2515 c-231 -62 -443 -253 -526 -474 -30 -79 -58 -217 -58 -281
0 -68 30 -210 61 -290 39 -103 135 -237 219 -306 76 -63 205 -133 305 -164
101 -31 265 -38 375 -16 168 34 306 109 426 231 87 87 142 179 186 305 30 89
32 104 32 230 1 159 -13 219 -79 357 -92 189 -315 370 -507 410 l-48 11 0
-137 0 -137 38 -13 c92 -33 203 -130 266 -234 39 -66 66 -168 66 -251 0 -228
-168 -442 -395 -502 -64 -18 -216 -18 -280 0 -212 56 -371 248 -391 472 -18
199 109 410 303 501 l73 35 0 134 c0 74 -3 134 -7 133 -5 0 -31 -6 -59 -14z"/>
<path d="M7849 2520 c-125 -15 -211 -69 -281 -176 l-43 -65 -3 105 -3 106
-129 0 -130 0 0 -750 0 -750 129 0 130 0 3 493 c4 490 4 492 28 557 18 50 37
79 84 126 80 80 133 99 269 97 l98 -1 -3 131 -3 132 -40 1 c-22 1 -70 -2 -106
-6z"/>
<path d="M8599 2521 c-155 -22 -303 -90 -410 -189 -171 -158 -253 -349 -251
-587 2 -373 221 -662 577 -761 93 -25 312 -30 416 -10 112 23 263 96 359 173
81 66 146 130 139 137 -2 2 -46 38 -98 79 l-94 76 -76 -70 c-120 -111 -261
-169 -411 -169 -248 1 -451 143 -519 364 -12 37 -21 70 -21 72 0 2 289 5 643
6 l642 3 -2 75 c-8 316 -176 599 -429 724 -134 66 -321 97 -465 77z m236 -252
c185 -45 338 -203 361 -371 l6 -45 -491 2 c-271 1 -494 5 -496 7 -9 8 25 118
51 170 36 72 135 167 209 202 108 51 242 64 360 35z"/>
<path d="M9533 2489 c-36 -10 -80 -58 -90 -97 -17 -69 52 -152 126 -152 143 0
177 190 44 246 -36 16 -36 16 -80 3z m96 -24 c58 -29 71 -125 25 -176 -46 -51
-139 -44 -175 15 -31 50 -25 102 15 142 38 38 86 45 135 19z"/>
<path d="M9520 2369 c0 -52 3 -70 13 -67 6 3 13 14 15 26 4 29 18 28 38 -3 9
-14 23 -25 30 -25 17 0 18 12 2 28 -10 10 -10 17 0 32 30 48 4 80 -62 80 l-36
0 0 -71z m78 24 c-2 -10 -13 -19 -26 -21 -17 -3 -22 2 -22 17 0 16 6 21 26 21
19 0 25 -5 22 -17z"/>
<path d="M4320 2481 c0 -6 54 -156 120 -333 66 -178 189 -510 273 -738 l153
-415 108 0 108 0 201 583 c110 320 204 579 207 575 4 -4 65 -174 134 -378 70
-203 147 -424 170 -490 23 -66 55 -159 72 -207 l29 -88 106 0 c93 0 108 2 114
17 3 10 40 110 82 223 41 113 118 320 170 460 52 140 137 370 188 510 51 140
96 263 100 273 7 16 -3 17 -132 17 l-138 0 -79 -227 c-43 -126 -103 -298 -133
-383 -30 -85 -76 -219 -103 -297 -26 -77 -52 -149 -57 -158 -10 -17 -44 62
-107 255 -14 41 -62 181 -106 310 -45 129 -102 295 -127 368 l-45 133 -141 -3
-140 -3 -152 -440 c-84 -242 -168 -485 -188 -540 l-35 -100 -15 38 c-9 20 -68
187 -131 370 -63 182 -142 409 -174 502 l-60 170 -136 3 c-85 2 -136 -1 -136
-7z"/>
<path d="M6790 1740 l0 -750 130 0 130 0 0 750 0 750 -130 0 -130 0 0 -750z"/>
<path d="M2652 1985 c-95 -41 -153 -126 -153 -224 -1 -193 199 -307 374 -213
141 76 167 274 50 384 -65 62 -192 87 -271 53z"/>
<path d="M4479 701 c-82 -26 -114 -79 -114 -196 0 -135 49 -200 150 -200 46 0
58 4 84 29 30 29 54 79 44 90 -12 11 -33 6 -33 -8 0 -23 -47 -73 -75 -80 -37
-9 -91 17 -110 55 -38 73 -28 207 20 255 35 35 97 33 130 -2 14 -15 25 -33 25
-40 0 -8 9 -14 20 -14 25 0 25 16 0 57 -29 48 -87 70 -141 54z"/>
<path d="M4785 669 c-44 -39 -59 -91 -53 -190 5 -89 30 -138 82 -163 115 -55
216 30 216 183 0 86 -17 136 -57 171 -29 26 -42 30 -93 30 -52 0 -64 -4 -95
-31z m158 -19 c32 -26 50 -80 49 -150 -1 -106 -39 -160 -112 -160 -76 0 -113
54 -114 165 0 76 17 122 56 149 31 22 90 20 121 -4z"/>
<path d="M5150 506 c0 -168 2 -196 15 -196 13 0 15 26 15 170 0 94 4 170 9
170 4 0 30 -75 58 -167 65 -223 69 -223 137 -6 28 89 54 165 59 169 4 4 7 -70
7 -164 0 -146 2 -172 15 -172 13 0 15 28 15 196 l0 195 -32 -3 -33 -3 -45
-147 c-25 -81 -48 -150 -52 -154 -4 -3 -29 63 -56 147 -48 154 -48 154 -80
157 l-32 3 0 -195z"/>
<path d="M5630 505 c0 -160 3 -195 14 -195 11 0 15 36 21 178 l8 177 24 -80
c80 -266 84 -276 101 -273 12 2 29 42 59 138 24 74 46 149 49 167 14 77 24 22
24 -137 0 -163 1 -170 20 -170 19 0 20 7 20 196 l0 195 -36 -3 -37 -3 -46
-152 c-25 -84 -48 -153 -52 -153 -3 0 -27 70 -55 155 l-49 155 -32 0 -33 0 0
-195z"/>
<path d="M6110 548 c0 -136 2 -157 20 -186 34 -56 115 -77 185 -48 65 27 72
55 67 274 -1 86 -5 112 -15 112 -11 0 -15 -35 -20 -156 -6 -141 -8 -159 -27
-179 -40 -43 -134 -34 -159 13 -7 12 -11 83 -11 171 0 144 -1 151 -20 151 -19
0 -20 -7 -20 -152z"/>
<path d="M6530 505 c0 -188 1 -195 20 -195 19 0 20 8 22 173 l3 172 98 -172
c135 -236 137 -236 137 22 0 187 -1 195 -20 195 -18 0 -20 -8 -22 -152 l-3
-153 -40 71 c-22 39 -60 107 -85 152 -42 76 -47 81 -77 82 l-33 0 0 -195z"/>
<path d="M6960 505 c0 -188 1 -195 20 -195 19 0 20 7 20 195 0 188 -1 195 -20
195 -19 0 -20 -7 -20 -195z"/>
<path d="M7186 679 c-47 -37 -60 -75 -61 -174 0 -72 4 -97 20 -124 32 -55 69
-76 130 -76 46 0 58 4 84 29 30 29 54 79 44 90 -13 13 -32 5 -38 -16 -13 -43
-46 -68 -87 -68 -82 0 -112 44 -112 165 0 119 30 165 109 165 38 0 85 -35 85
-65 0 -8 9 -15 20 -15 24 0 25 11 5 50 -23 45 -53 60 -116 60 -42 0 -63 -5
-83 -21z"/>
<path d="M7575 643 c-13 -45 -68 -222 -100 -320 -3 -8 5 -13 18 -13 20 0 25 9
38 58 l15 57 76 3 77 3 17 -61 c13 -47 21 -60 36 -60 24 0 25 -5 -45 222 l-52
168 -32 0 c-30 0 -32 -3 -48 -57z m85 -78 c32 -108 32 -108 -46 -103 -43 3
-49 6 -46 23 6 40 53 187 58 182 3 -3 18 -49 34 -102z"/>
<path d="M7780 685 c0 -10 15 -15 58 -17 l57 -3 3 -177 c2 -170 3 -178 22
-178 19 0 20 7 20 180 l0 180 60 0 c47 0 60 3 60 15 0 13 -22 15 -140 15 -116
0 -140 -3 -140 -15z"/>
<path d="M8160 505 l0 -195 25 0 25 0 0 195 0 195 -25 0 -25 0 0 -195z"/>
<path d="M8385 667 c-19 -19 -38 -52 -45 -78 -16 -60 -8 -169 17 -211 62 -106
196 -103 252 6 50 97 22 264 -50 301 -15 8 -53 15 -85 15 -50 0 -59 -3 -89
-33z m164 -22 c54 -47 65 -187 20 -262 -22 -36 -37 -43 -88 -43 -74 0 -111 55
-111 165 0 110 37 165 111 165 25 0 47 -8 68 -25z"/>
<path d="M8750 506 c0 -189 1 -196 20 -196 19 0 20 8 22 173 l3 172 34 -60
c140 -248 164 -285 182 -285 18 0 19 10 19 195 0 187 -1 195 -20 195 -18 0
-20 -8 -22 -152 l-3 -153 -86 150 c-80 139 -89 150 -118 153 l-31 3 0 -195z"/>
<path d="M9179 671 c-21 -22 -29 -39 -29 -66 0 -49 29 -75 118 -109 74 -29
102 -54 102 -93 0 -39 -34 -63 -89 -63 -44 0 -52 4 -80 36 -20 22 -38 34 -47
30 -19 -7 -8 -30 34 -69 56 -54 165 -45 203 17 45 74 10 135 -99 176 -83 31
-102 46 -102 79 0 39 28 61 77 61 33 0 46 -6 66 -30 25 -30 57 -40 57 -19 0 6
-15 26 -34 45 -31 31 -40 34 -91 34 -49 0 -60 -4 -86 -29z"/>
</g>
</svg>
