<svg id="xperi-location-icon" xmlns="http://www.w3.org/2000/svg" xmlns:xlink="http://www.w3.org/1999/xlink" width="19.666" height="19.666" viewBox="0 0 19.666 19.666">
  <defs>
    <linearGradient id="linear-gradient" x1="1.393" y1="1.393" x2="0.186" y2="0.186" gradientUnits="objectBoundingBox">
      <stop offset="0" stop-color="#e4077d"/>
      <stop offset="1" stop-color="#6226a7"/>
    </linearGradient>
  </defs>
  <rect id="Rectangle_125" data-name="Rectangle 125" width="13.906" height="13.906" rx="2" transform="translate(9.833) rotate(45)" fill="url(#linear-gradient)"/>
  <g id="Group_521" data-name="Group 521" transform="translate(-907.129 -173.016)">
    <path id="Path_2239" data-name="Path 2239" d="M10.292.579,9.8.087a.183.183,0,0,0-.221,0L9.087.579a.183.183,0,0,0,0,.221l.492.492a.183.183,0,0,0,.221,0L10.292.8A.184.184,0,0,0,10.292.579Z" transform="translate(907.163 179.949)" fill="#78be20"/>
    <path id="Path_2240" data-name="Path 2240" d="M5.692,8.329,3.652,6.288a.15.15,0,0,1,0-.2L5.692,4.051a.15.15,0,0,0,0-.2l-.467-.467a.15.15,0,0,0-.2,0L3.16,5.255a.386.386,0,0,1-.541,0L.751,3.387a.184.184,0,0,0-.221,0l-.443.467a.15.15,0,0,0,0,.2L2.127,6.091a.15.15,0,0,1,0,.2L.087,8.329a.15.15,0,0,0,0,.2l.443.492a.15.15,0,0,0,.2,0L2.595,7.148a.386.386,0,0,1,.541,0h0L5,9.017a.15.15,0,0,0,.2,0l.467-.467A.156.156,0,0,0,5.692,8.329Z" transform="translate(913.95 177.461)" fill="#fff"/>
  </g>
</svg>
